<svg width="562" height="127" viewBox="0 0 562 127" fill="none" xmlns="http://www.w3.org/2000/svg">
<path d="M544.377 23.2267C533.767 22.4967 523.157 21.9267 512.547 20.9367C507.087 20.4167 504.897 21.7667 504.327 27.8567C501.827 53.9667 501.827 79.9767 506.357 105.777C507.757 113.627 504.847 114.827 497.877 114.617C482.117 114.197 481.907 114.517 484.097 99.0667C487.427 75.4467 486.647 51.8367 484.877 28.2167C484.567 24.1067 484.457 19.5267 478.007 21.0367C455.117 26.4467 432.227 20.8767 409.347 20.7267C401.287 20.6767 399.517 23.5367 399.307 30.6067C398.787 47.3067 397.697 64.0567 396.857 80.7567C397.017 82.0567 397.217 83.3567 397.377 84.6567C400.967 92.8767 399.927 101.877 401.647 110.357C402.117 112.857 400.867 113.787 398.367 114.467C381.977 118.937 377.037 114.417 379.437 97.6667C382.717 74.4667 381.827 51.1667 380.117 27.8567C379.697 21.9767 377.207 20.3667 371.637 20.9367C358.377 22.3367 344.947 23.0667 331.687 24.7367C325.497 25.5667 323.207 24.4767 323.107 17.6667C322.797 1.07672 322.487 0.606718 338.917 2.21672C378.347 6.01672 417.777 3.30672 457.207 2.47672C473.597 2.11672 489.977 3.87672 506.417 4.34672C522.547 4.76672 538.667 3.72672 554.587 0.756718C559.897 -0.233282 560.937 1.69672 561.137 6.52672C561.967 24.5267 562.127 24.5267 544.387 23.2267H544.377Z" fill="#3C0862"/>
<path d="M312.437 102.967C312.907 105.257 313.947 108.067 311.087 109.417C306.667 111.497 301.727 112.067 297.047 111.137C293.457 110.457 294.547 106.817 294.657 104.217C295.277 90.1767 295.957 76.1266 296.637 62.0867C296.637 60.7867 296.687 59.4366 296.687 58.1367V53.8666C296.327 49.5466 296.007 45.2267 295.487 38.5167C290.697 48.1967 284.097 54.1266 284.977 64.5266C285.497 70.1966 278.317 73.6867 273.587 76.0266C269.897 77.8466 269.377 71.8167 267.557 69.2666C264.747 65.4166 262.567 61.0967 260.117 56.9867C259.497 56.1067 259.287 54.1767 257.727 55.2667C257.257 55.5767 257.937 57.5567 258.037 58.8067C259.647 78.5767 261.057 98.3967 263.027 118.107C263.707 125.077 262.407 127.107 254.967 125.177C238.737 120.967 238.217 121.277 240.457 103.957C244.617 72.4366 241.547 41.7967 230.367 12.0367C228.547 7.19665 229.117 5.22665 234.947 3.86665C251.697 -0.193348 251.487 -0.603349 254.767 16.4067C257.157 28.7367 263.717 39.1866 270.947 50.1666C281.867 38.4666 290.397 25.5667 294.667 10.4767C297.577 -0.033349 304.497 4.85665 310.067 5.16665C317.657 5.58665 313.347 10.7367 312.927 14.2167C311.317 28.1567 309.647 42.0967 308.037 56.0367C308.297 71.7967 309.077 87.5067 312.457 102.957L312.437 102.967Z" fill="#3C0862"/>
<path d="M224.127 53.2667C223.837 70.0367 223.947 86.7867 217.617 102.837C213.297 113.797 190.607 119.647 183.257 110.547C177.417 103.317 171.847 95.6067 172.017 84.8167C172.257 70.1167 170.597 55.3767 169.717 40.6667C169.257 33.0767 169.637 25.5867 172.447 18.4167C177.337 5.99668 188.737 -1.38332 200.417 0.216679C212.307 1.84668 223.417 13.8667 224.047 26.5167C224.487 35.4167 224.137 44.3567 224.137 53.2767L224.127 53.2667ZM189.267 56.2167C188.707 66.7867 188.207 77.3367 190.557 87.8467C191.467 91.9167 192.927 93.9667 196.807 94.3167C200.657 94.6667 203.117 93.0467 204.497 89.1967C205.867 85.3567 207.737 81.8567 207.337 77.4767C205.957 62.1767 204.897 46.8567 203.687 31.5467C203.357 27.3767 203.137 22.9467 197.357 22.8267C191.457 22.6967 189.677 27.1367 189.407 31.6467C188.927 39.8167 189.267 48.0267 189.267 56.2267V56.2167Z" fill="#3C0862"/>
<path d="M152.527 105.887C141.967 109.117 136.557 107.027 133.437 95.7467C129.897 83.0567 124.337 70.8867 119.397 57.7167C113.677 62.6567 112.007 67.5967 112.377 74.3067C113.257 89.0267 114.147 103.747 116.587 118.267C117.677 124.617 115.807 127.367 109.257 126.377C108.577 126.277 107.857 126.327 107.177 126.327C92.5074 126.427 93.0274 126.427 93.5974 111.497C94.8974 77.6867 97.5474 43.7167 87.9774 10.5267C86.0574 3.86668 88.5474 1.94668 94.9974 1.10668C111.277 -0.923325 111.177 -1.23332 110.867 14.8367C110.707 23.3167 110.817 31.8467 110.817 41.8867C125.177 28.9367 129.337 3.96668 156.127 11.5067C149.937 18.2667 144.007 25.0867 137.767 31.6367C131.317 38.4467 129.447 45.4167 133.037 54.8367C138.807 70.0767 147.187 83.6567 156.287 96.9167C160.447 102.947 158.887 103.887 152.537 105.867L152.527 105.887Z" fill="#3C0862"/>
<path d="M419.047 50.1568C418.887 47.7868 418.747 46.7568 418.757 45.7368C418.787 41.5468 415.707 35.8468 420.197 33.5968C425.527 30.9368 432.027 30.4168 438.107 29.5368C441.217 29.0868 440.407 32.1468 440.517 33.9568C442.117 62.4368 446.747 90.3568 456.107 117.367C457.377 121.027 456.267 122.077 453.107 123.217C440.607 127.727 438.757 126.677 438.307 113.597C438.067 106.507 438.697 99.9068 427.667 101.257C420.957 102.077 420.747 106.437 420.537 110.357C420.157 117.467 416.747 116.547 411.827 115.297C406.367 113.907 405.797 111.497 408.127 106.787C417.197 88.5168 418.577 68.7468 419.047 50.1668V50.1568ZM429.097 62.1068C427.207 72.6368 425.727 81.2768 424.087 89.8868C423.057 95.2468 426.387 95.1568 430.047 95.1068C433.557 95.0568 437.197 95.5068 435.847 89.9568C433.787 81.4868 433.587 72.5768 429.097 62.0968V62.1068Z" fill="#3C0862"/>
<path d="M362.377 52.7666C362.067 71.4266 364.727 89.5866 372.777 106.587C375.087 111.467 374.547 113.527 369.167 115.277C363.457 117.137 360.237 115.917 360.327 109.977C360.477 101.187 354.877 101.407 348.757 101.407C340.937 101.407 344.357 107.447 343.327 111.057C342.957 112.347 343.137 113.777 342.997 115.137C341.987 124.607 334.227 127.787 326.067 122.467C322.877 120.387 324.557 118.307 325.187 116.327C333.517 90.5066 338.467 64.0766 340.277 36.9966C340.457 34.3566 338.577 27.4766 345.297 29.9666C351.167 32.1466 360.757 28.0166 362.257 38.3866C362.937 43.0766 362.377 47.9566 362.377 52.7466V52.7666ZM351.977 63.9066C351.337 64.0466 350.697 64.1866 350.067 64.3266C348.567 72.9766 347.247 81.6666 345.527 90.2766C344.327 96.2966 348.437 95.0666 351.577 95.0366C354.427 95.0166 358.167 95.9966 357.047 90.5866C355.197 81.7266 353.657 72.7966 351.987 63.8966L351.977 63.9066Z" fill="#3C0862"/>
<path d="M546.858 124.637C543.068 125.947 541.928 124.057 541.878 120.627C541.828 117.197 541.848 113.737 541.448 110.337C541.018 106.737 543.288 101.267 536.318 101.487C531.178 101.647 524.948 99.5967 524.528 108.557C524.328 112.847 523.988 118.267 516.108 115.577C508.878 113.107 510.638 109.417 512.678 104.717C521.178 85.1067 523.898 64.3767 522.368 43.3467C521.738 34.6167 524.418 32.3267 532.288 30.9667C540.488 29.5567 544.228 29.4367 544.638 39.9567C545.568 63.9667 550.868 87.4367 557.268 110.597C560.308 121.587 558.438 124.117 546.858 124.647V124.637ZM532.347 65.2067C530.788 73.0367 529.138 80.8567 527.728 88.7167C527.218 91.5867 526.138 95.4567 531.278 95.0067C534.588 94.7167 539.757 97.6067 539.597 90.1267C539.407 81.3567 535.328 73.6367 532.338 65.1967L532.347 65.2067Z" fill="#3C0862"/>
<path d="M77.7274 19.6367C77.6774 24.9467 74.0874 22.9667 71.2774 22.3967C69.1974 21.9267 67.1674 21.4567 65.0874 20.9967C53.6407 21.03 47.2441 26.8034 45.8974 38.3167C43.3474 59.6467 45.1674 80.8167 47.9774 101.887C49.6374 114.687 50.0574 114.627 37.6274 114.577C35.2374 114.577 32.7874 114.367 30.4474 114.527C25.2974 114.887 24.1574 113.127 25.0874 107.867C29.5074 83.0567 28.9874 58.0367 27.5874 32.9567C26.8574 19.8467 25.7174 19.3267 13.0774 21.3067C8.96741 21.9867 2.82741 25.7767 1.16741 21.2567C-0.922587 15.5267 0.327413 8.3967 0.847413 2.0067C1.05741 -0.593305 4.27741 0.186695 6.04741 0.646695C22.7974 5.3767 39.8574 4.1867 56.9174 3.6667C58.2174 3.4067 59.5674 3.1467 60.9274 2.9367C61.5474 2.7767 62.2774 2.3167 62.8474 2.4667C67.7874 3.5567 74.3474 -2.4733 76.7374 1.7867C79.3374 6.4667 77.7774 13.5467 77.7274 19.6267V19.6367Z" fill="#3C0862"/>
<path d="M67.4775 29.0466C75.8475 26.3266 78.4475 29.2466 77.3775 37.7866C74.5275 60.6066 75.1375 83.5666 75.4175 106.517C75.4475 108.977 77.0975 113.167 73.7175 113.687C68.0775 114.547 61.8975 114.997 56.6075 112.327C53.2375 110.627 56.3675 107.327 56.9175 104.997C62.0375 83.3966 63.5575 61.6566 58.7875 39.8966C56.9675 31.5766 57.2975 26.7366 67.4775 29.0466Z" fill="#3C0862"/>
</svg>